<svg width="105" height="113" viewBox="0 0 105 113" fill="none" xmlns="http://www.w3.org/2000/svg">
<path d="M21 0.5C19.3604 0.5 18 1.86041 18 3.5V8H7.5C3.37573 8 0 11.3757 0 15.5V90.5C0 94.6243 3.37573 98 7.5 98H58.7666C62.3346 106.785 70.9467 113 81 113C94.2371 113 105 102.237 105 89C105 78.9467 98.7852 70.3346 90 66.7666V15.5C90 11.3757 86.6243 8 82.5 8H72V3.5C72 1.86041 70.6396 0.5 69 0.5H66C64.3604 0.5 63 1.86041 63 3.5V8H27V3.5C27 1.86041 25.6396 0.5 24 0.5H21ZM21 3.5H24V15.5H21V3.5ZM66 3.5H69V15.5H66V3.5ZM7.5 11H18V15.5C18 17.1396 19.3604 18.5 21 18.5H24C25.6396 18.5 27 17.1396 27 15.5V11H63V15.5C63 17.1396 64.3604 18.5 66 18.5H69C70.6396 18.5 72 17.1396 72 15.5V11H82.5C85.0027 11 87 12.9973 87 15.5V26H3V15.5C3 12.9973 4.99727 11 7.5 11ZM3 29H87V65.791C85.0783 65.2939 83.0752 65 81 65C67.7629 65 57 75.7629 57 89C57 91.0752 57.2939 93.0783 57.791 95H7.5C4.99727 95 3 93.0027 3 90.5V29ZM45 38.8174L43.6289 41.8877L40.0869 49.833L28.0928 51.1016L37.0518 59.1787L34.5498 70.9795L45 64.9531L55.4502 70.9795L52.9482 59.1787L61.9072 51.1016L49.9131 49.833L45 38.8174ZM45 46.1855L47.877 52.6367L54.9023 53.3779L49.6553 58.1094L51.1201 65.0176L45 61.4902L38.8799 65.0176L40.3447 58.1094L35.0977 53.3779L42.123 52.6367L45 46.1855ZM81 68C92.6157 68 102 77.3843 102 89C102 100.616 92.6157 110 81 110C69.3843 110 60 100.616 60 89C60 77.3843 69.3843 68 81 68ZM91.1689 80.3398L76.9277 94.2734L71.458 88.6982L69.3164 90.7959L76.8838 98.5127L93.2666 82.4844L91.1689 80.3398ZM9 86C8.60218 86 8.22064 86.158 7.93934 86.4393C7.65804 86.7206 7.5 87.1022 7.5 87.5C7.5 87.8978 7.65804 88.2794 7.93934 88.5607C8.22064 88.842 8.60218 89 9 89C9.39782 89 9.77936 88.842 10.0607 88.5607C10.342 88.2794 10.5 87.8978 10.5 87.5C10.5 87.1022 10.342 86.7206 10.0607 86.4393C9.77936 86.158 9.39782 86 9 86ZM15 86C14.6022 86 14.2206 86.158 13.9393 86.4393C13.658 86.7206 13.5 87.1022 13.5 87.5C13.5 87.8978 13.658 88.2794 13.9393 88.5607C14.2206 88.842 14.6022 89 15 89C15.3978 89 15.7794 88.842 16.0607 88.5607C16.342 88.2794 16.5 87.8978 16.5 87.5C16.5 87.1022 16.342 86.7206 16.0607 86.4393C15.7794 86.158 15.3978 86 15 86ZM21 86C20.6022 86 20.2206 86.158 19.9393 86.4393C19.658 86.7206 19.5 87.1022 19.5 87.5C19.5 87.8978 19.658 88.2794 19.9393 88.5607C20.2206 88.842 20.6022 89 21 89C21.3978 89 21.7794 88.842 22.0607 88.5607C22.342 88.2794 22.5 87.8978 22.5 87.5C22.5 87.1022 22.342 86.7206 22.0607 86.4393C21.7794 86.158 21.3978 86 21 86ZM27 86C26.6022 86 26.2206 86.158 25.9393 86.4393C25.658 86.7206 25.5 87.1022 25.5 87.5C25.5 87.8978 25.658 88.2794 25.9393 88.5607C26.2206 88.842 26.6022 89 27 89C27.3978 89 27.7794 88.842 28.0607 88.5607C28.342 88.2794 28.5 87.8978 28.5 87.5C28.5 87.1022 28.342 86.7206 28.0607 86.4393C27.7794 86.158 27.3978 86 27 86ZM33 86C32.6022 86 32.2206 86.158 31.9393 86.4393C31.658 86.7206 31.5 87.1022 31.5 87.5C31.5 87.8978 31.658 88.2794 31.9393 88.5607C32.2206 88.842 32.6022 89 33 89C33.3978 89 33.7794 88.842 34.0607 88.5607C34.342 88.2794 34.5 87.8978 34.5 87.5C34.5 87.1022 34.342 86.7206 34.0607 86.4393C33.7794 86.158 33.3978 86 33 86ZM39 86C38.6022 86 38.2206 86.158 37.9393 86.4393C37.658 86.7206 37.5 87.1022 37.5 87.5C37.5 87.8978 37.658 88.2794 37.9393 88.5607C38.2206 88.842 38.6022 89 39 89C39.3978 89 39.7794 88.842 40.0607 88.5607C40.342 88.2794 40.5 87.8978 40.5 87.5C40.5 87.1022 40.342 86.7206 40.0607 86.4393C39.7794 86.158 39.3978 86 39 86ZM45 86C44.6022 86 44.2206 86.158 43.9393 86.4393C43.658 86.7206 43.5 87.1022 43.5 87.5C43.5 87.8978 43.658 88.2794 43.9393 88.5607C44.2206 88.842 44.6022 89 45 89C45.3978 89 45.7794 88.842 46.0607 88.5607C46.342 88.2794 46.5 87.8978 46.5 87.5C46.5 87.1022 46.342 86.7206 46.0607 86.4393C45.7794 86.158 45.3978 86 45 86ZM51 86C50.6022 86 50.2206 86.158 49.9393 86.4393C49.658 86.7206 49.5 87.1022 49.5 87.5C49.5 87.8978 49.658 88.2794 49.9393 88.5607C50.2206 88.842 50.6022 89 51 89C51.3978 89 51.7794 88.842 52.0607 88.5607C52.342 88.2794 52.5 87.8978 52.5 87.5C52.5 87.1022 52.342 86.7206 52.0607 86.4393C51.7794 86.158 51.3978 86 51 86Z" fill="white"/>
</svg>
