<svg width="130" height="128" viewBox="0 0 130 128" fill="none" xmlns="http://www.w3.org/2000/svg">
<path d="M67.75 0.342041C59.2927 0.342041 53.9292 1.24995 50.4099 2.85791C46.8906 4.46587 45.217 7.19642 45.217 9.75C45.217 11.6071 45.9303 13.2968 47.0518 14.562C48.1732 15.8272 49.6445 16.716 51.2668 17.3782C54.5116 18.7026 58.4396 19.158 62.125 19.158C67.5319 19.158 73.2943 17.283 79.0586 17.283C84.4461 17.283 89.7525 18.8335 95.1389 24.8159C92.6171 27.3499 90.9866 30.1415 89.7373 32.228C88.9843 33.4858 88.2825 34.4468 87.5364 35.0405C86.7902 35.6343 86.0175 35.967 84.625 35.967C80.5739 35.967 78.1687 34.7272 74.5176 33.2864C70.8665 31.8455 66.1555 30.342 58.375 30.342C42.8201 30.342 27.6837 40.7335 25.1194 57.3538C22.9457 55.6807 20.0994 54.717 17.125 54.717C13.5794 54.717 10.6169 55.8765 8.63989 57.9727C6.66285 60.0688 5.74683 62.9594 5.74683 66.0916C5.74683 68.4589 6.76079 71.0709 8.65454 73.2913C10.5483 75.5116 13.4753 77.283 17.125 77.283C20.4346 77.283 23.3178 76.1853 25.9836 74.2141C27.8974 77.4721 30.509 79.9696 33.3628 81.4358C36.7936 83.1984 40.2633 83.8857 42.7964 83.8857C44.7318 83.8857 47.532 84.2687 49.5969 85.1309C50.6294 85.5619 51.4637 86.1062 51.9736 86.6653C52.4836 87.2244 52.717 87.7345 52.717 88.5C52.717 89.7606 51.9008 90.5745 50.5051 91.8838C49.1095 93.1931 47.092 94.9862 47.092 97.875C47.092 101.984 49.5532 104.802 52.5413 106.001C55.5293 107.2 58.9874 107.283 62.125 107.283C68.6103 107.283 72.0766 108.785 74.6348 110.963C77.1929 113.142 78.8871 116.237 81.1753 119.58C82.6071 121.674 84.2034 123.661 85.9873 125.202C87.7719 126.742 89.8085 127.908 92.125 127.908C93.6966 127.908 95.3348 127.475 96.7832 126.626C98.2317 125.777 99.658 124.306 99.658 122.25C99.658 111.05 91.8799 104.295 84.5042 100.625C83.3445 100.048 82.4666 99.9193 81.3438 99.4717C91.4275 93.6893 97.6315 86.8908 100.995 79.1873C104.37 71.4563 105.016 62.9205 105.136 53.8967C108.652 55.6107 112.294 56.658 115.562 56.658C118.658 56.658 121.981 56.6257 124.846 55.0833C127.71 53.5408 129.658 50.2637 129.658 45.375C129.658 35.5226 125.792 29.1252 120.506 25.5154C115.529 22.1161 109.562 21.1822 104.378 21.0732C97.2156 8.44249 81.7454 0.342041 67.75 0.342041ZM67.75 4.15796C80.5737 4.15796 95.637 12.1615 101.683 23.7576C101.845 24.0667 102.088 24.3256 102.386 24.5064C102.684 24.6872 103.026 24.7828 103.375 24.783C108.3 24.783 114.029 25.7194 118.353 28.6721C122.677 31.6248 125.842 36.4774 125.842 45.375C125.842 49.3926 124.743 50.8029 123.037 51.7214C121.331 52.64 118.56 52.842 115.562 52.842C112.203 52.842 108.031 51.7819 104.426 49.407C104.138 49.2178 103.805 49.11 103.461 49.0949C103.117 49.0798 102.775 49.158 102.472 49.3213C102.168 49.4845 101.915 49.7267 101.738 50.0222C101.561 50.3178 101.468 50.6556 101.467 51C101.467 61.0067 100.877 69.9057 97.4937 77.6565C94.1588 85.2952 88.0924 91.9698 76.7185 97.7798C76.0221 97.5748 75.0688 97.1091 74.4553 96.9521C74.2733 96.9056 74.1895 96.8959 74.0159 96.8533C78.7034 92.7511 84.658 85.1327 84.658 73.5C84.658 64.4291 79.7267 57.2885 72.4558 53.0947C72.0168 52.8412 71.4951 52.7725 71.0054 52.9037C70.5157 53.0349 70.0982 53.3552 69.8447 53.7942C69.5912 54.2332 69.5225 54.7549 69.6537 55.2446C69.7849 55.7343 70.1052 56.1518 70.5442 56.4053C76.8745 60.0565 80.842 65.7784 80.842 73.5C80.842 86.5177 72.0981 94.0635 68.6069 96.26C68.6033 96.2612 68.5996 96.2624 68.5959 96.2637V99.4827C68.5959 99.4827 68.9729 99.6737 69.0391 99.6951C69.1713 99.7378 69.2008 99.7392 69.2332 99.7463C69.2979 99.7606 69.3231 99.7657 69.3577 99.772C69.4268 99.7845 69.5003 99.7951 69.5994 99.8123C69.7976 99.8465 70.0825 99.8961 70.449 99.9661C71.1818 100.106 72.2399 100.326 73.5105 100.651C76.0517 101.301 79.4505 102.377 82.8049 104.046C89.5137 107.384 95.842 112.788 95.842 122.25C95.842 122.472 95.6277 122.874 94.8496 123.33C94.0715 123.787 92.8971 124.092 92.125 124.092C91.1602 124.092 89.8808 123.517 88.4849 122.312C87.089 121.107 85.6394 119.346 84.3247 117.423V117.42C82.1843 114.292 80.3628 110.822 77.114 108.056C73.8653 105.289 69.2335 103.467 62.125 103.467C59.1033 103.467 55.9968 103.273 53.9622 102.456C51.9275 101.64 50.908 100.706 50.908 97.875C50.908 96.7869 51.703 95.9999 53.1199 94.6707C54.5367 93.3414 56.533 91.4581 56.533 88.5C56.533 86.7755 55.8289 85.2221 54.7971 84.0908C53.7653 82.9596 52.4528 82.1856 51.0691 81.6079C48.3017 80.4525 45.1866 80.0662 42.7964 80.0662C41.0039 80.0662 37.9395 79.4913 35.1096 78.0374C32.2798 76.5834 29.6746 74.318 28.2651 70.8962C28.1453 70.6056 27.9556 70.349 27.7129 70.1492C27.4701 69.9494 27.1818 69.8127 26.8735 69.7511C26.5652 69.6895 26.2465 69.705 25.9456 69.7962C25.6447 69.8873 25.371 70.0513 25.1487 70.2737C22.6363 72.7861 20.5567 73.467 17.125 73.467C14.681 73.467 12.8748 72.3553 11.5586 70.812C10.2423 69.2688 9.56641 67.2361 9.56641 66.0916C9.56641 63.6887 10.2371 61.8483 11.4194 60.5947C12.6018 59.3412 14.3744 58.533 17.125 58.533C20.8472 58.533 23.9704 60.4006 24.6653 62.7847C24.7945 63.2254 25.0781 63.6049 25.4644 63.8535C25.8506 64.1021 26.3135 64.2032 26.7682 64.1382C27.2229 64.0733 27.6389 63.8466 27.9401 63.4998C28.2413 63.153 28.4074 62.7093 28.408 62.25C28.408 44.9177 43.1504 34.158 58.375 34.158C65.6808 34.158 69.6392 35.467 73.115 36.8386C76.5908 38.2103 79.7698 39.783 84.625 39.783C86.7481 39.783 88.5592 39.1062 89.9131 38.0288C91.267 36.9515 92.1817 35.5825 93.0149 34.1909C94.6813 31.4077 96.059 28.4726 98.9182 26.2588C99.1195 26.1031 99.2877 25.9087 99.4128 25.6871C99.5379 25.4655 99.6175 25.2211 99.6469 24.9683C99.6762 24.7155 99.6547 24.4593 99.5837 24.215C99.5126 23.9706 99.3934 23.7428 99.2332 23.5452C92.8221 15.6546 85.5989 13.467 79.0586 13.467C72.5182 13.467 66.5619 15.342 62.125 15.342C58.7791 15.342 55.2071 14.8599 52.7097 13.8406C51.461 13.3309 50.5007 12.6962 49.9082 12.0278C49.3157 11.3594 49.033 10.7054 49.033 9.75C49.033 8.55358 49.3593 7.53413 51.9956 6.32959C54.6319 5.12505 59.5798 4.15796 67.75 4.15796ZM13.8438 19.125L12.3423 19.8794L12.0457 21.531L13.1919 22.7578L13.8438 22.875L15.3452 22.1206L15.6418 20.469L14.4956 19.2422L13.8438 19.125ZM21.3438 19.125L19.8423 19.8794L19.5457 21.531L20.6919 22.7578L21.3438 22.875L22.8452 22.1206L23.1418 20.469L21.9956 19.2422L21.3438 19.125ZM28.8438 19.125C28.5953 19.1215 28.3486 19.1674 28.118 19.26C27.8875 19.3527 27.6776 19.4902 27.5007 19.6647C27.3237 19.8392 27.1832 20.047 27.0873 20.2763C26.9914 20.5055 26.942 20.7515 26.942 21C26.942 21.2485 26.9914 21.4945 27.0873 21.7237C27.1832 21.953 27.3237 22.1608 27.5007 22.3353C27.6776 22.5098 27.8875 22.6473 28.118 22.74C28.3486 22.8326 28.5953 22.8785 28.8438 22.875H42.4375C42.686 22.8785 42.9326 22.8326 43.1632 22.74C43.3938 22.6473 43.6036 22.5098 43.7806 22.3353C43.9575 22.1608 44.098 21.953 44.1939 21.7237C44.2898 21.4945 44.3392 21.2485 44.3392 21C44.3392 20.7515 44.2898 20.5055 44.1939 20.2763C44.098 20.047 43.9575 19.8392 43.7806 19.6647C43.6036 19.4902 43.3938 19.3527 43.1632 19.26C42.9326 19.1674 42.686 19.1215 42.4375 19.125H28.8438ZM8.9292 28.5L7.42773 29.2544L7.1311 30.906L8.27734 32.1328L8.9292 32.25L10.4307 31.4956L10.7273 29.844L9.58105 28.6172L8.9292 28.5ZM16.4292 28.5L14.9277 29.2544L14.6311 30.906L15.7773 32.1328L16.4292 32.25L17.9307 31.4956L18.2273 29.844L17.0811 28.6172L16.4292 28.5ZM22.8782 28.5C22.6297 28.4965 22.383 28.5424 22.1525 28.635C21.9219 28.7277 21.712 28.8652 21.5351 29.0397C21.3582 29.2142 21.2177 29.422 21.1218 29.6513C21.0259 29.8805 20.9765 30.1265 20.9765 30.375C20.9765 30.6235 21.0259 30.8695 21.1218 31.0987C21.2177 31.328 21.3582 31.5358 21.5351 31.7103C21.712 31.8848 21.9219 32.0223 22.1525 32.115C22.383 32.2076 22.6297 32.2535 22.8782 32.25H31.6562C31.9047 32.2535 32.1514 32.2076 32.382 32.115C32.6125 32.0223 32.8224 31.8848 32.9993 31.7103C33.1763 31.5358 33.3168 31.328 33.4127 31.0987C33.5086 30.8695 33.558 30.6235 33.558 30.375C33.558 30.1265 33.5086 29.8805 33.4127 29.6513C33.3168 29.422 33.1763 29.2142 32.9993 29.0397C32.8224 28.8652 32.6125 28.7277 32.382 28.635C32.1514 28.5424 31.9047 28.4965 31.6562 28.5H22.8782ZM118.305 36.6848C117.784 36.6848 117.267 36.7875 116.785 36.9872C116.303 37.1869 115.865 37.4795 115.496 37.8485C115.127 38.2175 114.834 38.6555 114.634 39.1376C114.435 39.6197 114.332 40.1364 114.332 40.6582C114.332 41.18 114.435 41.6967 114.634 42.1788C114.834 42.6609 115.127 43.0989 115.496 43.4679C115.865 43.8369 116.303 44.1295 116.785 44.3292C117.267 44.5289 117.784 44.6316 118.305 44.6316C119.359 44.6307 120.368 44.2117 121.113 43.4666C121.857 42.7215 122.275 41.7114 122.275 40.6582C122.275 39.605 121.857 38.5949 121.113 37.8498C120.368 37.1047 119.359 36.6857 118.305 36.6848ZM2.59375 39.75L1.09229 40.5044L0.795654 42.156L1.94189 43.3828L2.59375 43.5L4.09521 42.7456L4.39185 41.094L3.24561 39.8672L2.59375 39.75ZM10.0938 39.75L8.59229 40.5044L8.29565 42.156L9.44189 43.3828L10.0938 43.5L11.5952 42.7456L11.8918 41.094L10.7456 39.8672L10.0938 39.75ZM17.125 39.75C16.8765 39.7465 16.6299 39.7924 16.3993 39.885C16.1687 39.9777 15.9589 40.1152 15.7819 40.2897C15.605 40.4642 15.4645 40.672 15.3686 40.9013C15.2727 41.1305 15.2233 41.3765 15.2233 41.625C15.2233 41.8735 15.2727 42.1195 15.3686 42.3487C15.4645 42.578 15.605 42.7858 15.7819 42.9603C15.9589 43.1348 16.1687 43.2723 16.3993 43.365C16.6299 43.4576 16.8765 43.5035 17.125 43.5H23.6619C23.9103 43.5035 24.157 43.4576 24.3876 43.365C24.6181 43.2723 24.828 43.1348 25.0049 42.9603C25.1819 42.7858 25.3224 42.578 25.4183 42.3487C25.5142 42.1195 25.5636 41.8735 25.5636 41.625C25.5636 41.3765 25.5142 41.1305 25.4183 40.9013C25.3224 40.672 25.1819 40.4642 25.0049 40.2897C24.828 40.1152 24.6181 39.9777 24.3876 39.885C24.157 39.7924 23.9103 39.7465 23.6619 39.75H17.125ZM63.9268 50.4214L62.4253 51.1721L62.1287 52.8274L63.2786 54.0542L63.9268 54.1714L65.4319 53.417L65.7249 51.7617L64.5786 50.5349L63.9268 50.4214ZM56.4597 50.7839L54.9583 51.5383L54.6616 53.1899L55.8079 54.4167L56.4597 54.5339L57.9612 53.7832L58.2578 52.1279L57.1079 50.9011L56.4597 50.7839ZM49.4688 53.3438L47.9673 54.0981L47.6707 55.7498L48.8169 56.9766L49.4688 57.0938L50.9702 56.3394L51.2668 54.6877L50.1206 53.4609L49.4688 53.3438ZM70.6541 99.4827V99.4863L70.6431 99.49L70.6541 99.4827Z" fill="#2D1B1B"/>
</svg>
