<svg width="112" height="95" viewBox="0 0 112 95" fill="none" xmlns="http://www.w3.org/2000/svg">
<path d="M32 0.5C14.63 0.5 0.500001 14.63 0.500001 32C0.500001 35.897 1.65153 39.938 3.58203 44H6.90137C4.77587 39.9005 3.5 35.8475 3.5 32C3.5 16.2845 16.2845 3.5 32 3.5C41.0375 3.5 49.3463 7.67558 54.7988 14.9551L56 16.5547L57.2012 14.9551C62.6537 7.67558 70.9625 3.5 80 3.5C95.7155 3.5 108.5 16.2845 108.5 32C108.5 39.9845 103.081 48.8401 95.709 57.2041C95.2815 57.6901 95.2033 58.3921 95.5273 58.9531C96.0418 59.8441 97.2868 59.9791 97.9648 59.2051C105.742 50.3341 111.5 40.802 111.5 32C111.5 14.63 97.37 0.5 80 0.5C70.6505 0.5 62.0075 4.53896 56 11.6475C49.9925 4.53896 41.3495 0.5 32 0.5ZM32 8C31.6022 8 31.2206 8.15804 30.9393 8.43934C30.658 8.72064 30.5 9.10218 30.5 9.5C30.5 9.89782 30.658 10.2794 30.9393 10.5607C31.2206 10.842 31.6022 11 32 11C32.3978 11 32.7794 10.842 33.0607 10.5607C33.342 10.2794 33.5 9.89782 33.5 9.5C33.5 9.10218 33.342 8.72064 33.0607 8.43934C32.7794 8.15804 32.3978 8 32 8ZM80 8C79.6022 8 79.2206 8.15804 78.9393 8.43934C78.658 8.72064 78.5 9.10218 78.5 9.5C78.5 9.89782 78.658 10.2794 78.9393 10.5607C79.2206 10.842 79.6022 11 80 11C80.3978 11 80.7794 10.842 81.0607 10.5607C81.342 10.2794 81.5 9.89782 81.5 9.5C81.5 9.10218 81.342 8.72064 81.0607 8.43934C80.7794 8.15804 80.3978 8 80 8ZM26.1758 8.76758C25.778 8.76758 25.3964 8.92561 25.1151 9.20692C24.8338 9.48822 24.6758 9.86975 24.6758 10.2676C24.6758 10.6654 24.8338 11.0469 25.1151 11.3282C25.3964 11.6095 25.778 11.7676 26.1758 11.7676C26.5736 11.7676 26.9551 11.6095 27.2364 11.3282C27.5177 11.0469 27.6758 10.6654 27.6758 10.2676C27.6758 9.86975 27.5177 9.48822 27.2364 9.20692C26.9551 8.92561 26.5736 8.76758 26.1758 8.76758ZM37.8213 8.76758C37.4235 8.76758 37.0419 8.92561 36.7606 9.20692C36.4793 9.48822 36.3213 9.86975 36.3213 10.2676C36.3213 10.6654 36.4793 11.0469 36.7606 11.3282C37.0419 11.6095 37.4235 11.7676 37.8213 11.7676C38.2191 11.7676 38.6006 11.6095 38.882 11.3282C39.1633 11.0469 39.3213 10.6654 39.3213 10.2676C39.3213 9.86975 39.1633 9.48822 38.882 9.20692C38.6006 8.92561 38.2191 8.76758 37.8213 8.76758ZM74.1729 8.76758C73.775 8.76758 73.3935 8.92561 73.1122 9.20692C72.8309 9.48822 72.6729 9.86975 72.6729 10.2676C72.6729 10.6654 72.8309 11.0469 73.1122 11.3282C73.3935 11.6095 73.775 11.7676 74.1729 11.7676C74.5707 11.7676 74.9522 11.6095 75.2335 11.3282C75.5148 11.0469 75.6729 10.6654 75.6729 10.2676C75.6729 9.86975 75.5148 9.48822 75.2335 9.20692C74.9522 8.92561 74.5707 8.76758 74.1729 8.76758ZM85.8213 8.77051C85.4235 8.77051 85.0419 8.92854 84.7606 9.20985C84.4793 9.49115 84.3213 9.87268 84.3213 10.2705C84.3213 10.6683 84.4793 11.0499 84.7606 11.3312C85.0419 11.6125 85.4235 11.7705 85.8213 11.7705C86.2191 11.7705 86.6006 11.6125 86.882 11.3312C87.1633 11.0499 87.3213 10.6683 87.3213 10.2705C87.3213 9.87268 87.1633 9.49115 86.882 9.20985C86.6006 8.92854 86.2191 8.77051 85.8213 8.77051ZM20.75 11.0146C20.3522 11.0146 19.9706 11.1727 19.6893 11.454C19.408 11.7353 19.25 12.1168 19.25 12.5146C19.25 12.9125 19.408 13.294 19.6893 13.5753C19.9706 13.8566 20.3522 14.0146 20.75 14.0146C21.1478 14.0146 21.5294 13.8566 21.8107 13.5753C22.092 13.294 22.25 12.9125 22.25 12.5146C22.25 12.1168 22.092 11.7353 21.8107 11.454C21.5294 11.1727 21.1478 11.0146 20.75 11.0146ZM68.7471 11.0146C68.3493 11.0146 67.9677 11.1727 67.6864 11.454C67.4051 11.7353 67.2471 12.1168 67.2471 12.5146C67.2471 12.9125 67.4051 13.294 67.6864 13.5753C67.9677 13.8566 68.3493 14.0146 68.7471 14.0146C69.1449 14.0146 69.5264 13.8566 69.8077 13.5753C70.089 13.294 70.2471 12.9125 70.2471 12.5146C70.2471 12.1168 70.089 11.7353 69.8077 11.454C69.5264 11.1727 69.1449 11.0146 68.7471 11.0146ZM43.25 11.0176C42.8522 11.0176 42.4706 11.1756 42.1893 11.4569C41.908 11.7382 41.75 12.1198 41.75 12.5176C41.75 12.9154 41.908 13.2969 42.1893 13.5782C42.4706 13.8595 42.8522 14.0176 43.25 14.0176C43.6478 14.0176 44.0294 13.8595 44.3107 13.5782C44.592 13.2969 44.75 12.9154 44.75 12.5176C44.75 12.1198 44.592 11.7382 44.3107 11.4569C44.0294 11.1756 43.6478 11.0176 43.25 11.0176ZM91.25 11.0176C90.8522 11.0176 90.4706 11.1756 90.1893 11.4569C89.908 11.7382 89.75 12.1198 89.75 12.5176C89.75 12.9154 89.908 13.2969 90.1893 13.5782C90.4706 13.8595 90.8522 14.0176 91.25 14.0176C91.6478 14.0176 92.0294 13.8595 92.3107 13.5782C92.592 13.2969 92.75 12.9154 92.75 12.5176C92.75 12.1198 92.592 11.7382 92.3107 11.4569C92.0294 11.1756 91.6478 11.0176 91.25 11.0176ZM16.0889 14.5889C15.691 14.5889 15.3095 14.7469 15.0282 15.0282C14.7469 15.3095 14.5889 15.691 14.5889 16.0889C14.5889 16.4867 14.7469 16.8682 15.0282 17.1495C15.3095 17.4308 15.691 17.5889 16.0889 17.5889C16.4867 17.5889 16.8682 17.4308 17.1495 17.1495C17.4308 16.8682 17.5889 16.4867 17.5889 16.0889C17.5889 15.691 17.4308 15.3095 17.1495 15.0282C16.8682 14.7469 16.4867 14.5889 16.0889 14.5889ZM47.9082 14.5889C47.5104 14.5889 47.1288 14.7469 46.8475 15.0282C46.5662 15.3095 46.4082 15.691 46.4082 16.0889C46.4082 16.4867 46.5662 16.8682 46.8475 17.1495C47.1288 17.4308 47.5104 17.5889 47.9082 17.5889C48.306 17.5889 48.6876 17.4308 48.9689 17.1495C49.2502 16.8682 49.4082 16.4867 49.4082 16.0889C49.4082 15.691 49.2502 15.3095 48.9689 15.0282C48.6876 14.7469 48.306 14.5889 47.9082 14.5889ZM95.9082 14.5889C95.5104 14.5889 95.1289 14.7469 94.8475 15.0282C94.5662 15.3095 94.4082 15.691 94.4082 16.0889C94.4082 16.4867 94.5662 16.8682 94.8475 17.1495C95.1289 17.4308 95.5104 17.5889 95.9082 17.5889C96.306 17.5889 96.6876 17.4308 96.9689 17.1495C97.2502 16.8682 97.4082 16.4867 97.4082 16.0889C97.4082 15.691 97.2502 15.3095 96.9689 15.0282C96.6876 14.7469 96.306 14.5889 95.9082 14.5889ZM64.0889 14.5918C63.691 14.5918 63.3095 14.7498 63.0282 15.0311C62.7469 15.3124 62.5889 15.694 62.5889 16.0918C62.5889 16.4896 62.7469 16.8712 63.0282 17.1525C63.3095 17.4338 63.691 17.5918 64.0889 17.5918C64.4867 17.5918 64.8682 17.4338 65.1495 17.1525C65.4308 16.8712 65.5889 16.4896 65.5889 16.0918C65.5889 15.694 65.4308 15.3124 65.1495 15.0311C64.8682 14.7498 64.4867 14.5918 64.0889 14.5918ZM12.5146 19.25C12.1168 19.25 11.7353 19.408 11.454 19.6893C11.1727 19.9706 11.0146 20.3522 11.0146 20.75C11.0146 21.1478 11.1727 21.5294 11.454 21.8107C11.7353 22.092 12.1168 22.25 12.5146 22.25C12.9125 22.25 13.294 22.092 13.5753 21.8107C13.8566 21.5294 14.0146 21.1478 14.0146 20.75C14.0146 20.3522 13.8566 19.9706 13.5753 19.6893C13.294 19.408 12.9125 19.25 12.5146 19.25ZM51.4824 19.25C51.0846 19.25 50.7031 19.408 50.4218 19.6893C50.1405 19.9706 49.9824 20.3522 49.9824 20.75C49.9824 21.1478 50.1405 21.5294 50.4218 21.8107C50.7031 22.092 51.0846 22.25 51.4824 22.25C51.8802 22.25 52.2618 22.092 52.5431 21.8107C52.8244 21.5294 52.9824 21.1478 52.9824 20.75C52.9824 20.3522 52.8244 19.9706 52.5431 19.6893C52.2618 19.408 51.8802 19.25 51.4824 19.25ZM99.4824 19.25C99.0846 19.25 98.7031 19.408 98.4218 19.6893C98.1405 19.9706 97.9824 20.3522 97.9824 20.75C97.9824 21.1478 98.1405 21.5294 98.4218 21.8107C98.7031 22.092 99.0846 22.25 99.4824 22.25C99.8802 22.25 100.262 22.092 100.543 21.8107C100.824 21.5294 100.982 21.1478 100.982 20.75C100.982 20.3522 100.824 19.9706 100.543 19.6893C100.262 19.408 99.8802 19.25 99.4824 19.25ZM60.5147 19.2529C60.1168 19.2529 59.7353 19.411 59.454 19.6923C59.1727 19.9736 59.0147 20.3551 59.0147 20.7529C59.0147 21.1508 59.1727 21.5323 59.454 21.8136C59.7353 22.0949 60.1168 22.2529 60.5147 22.2529C60.9125 22.2529 61.294 22.0949 61.5753 21.8136C61.8566 21.5323 62.0147 21.1508 62.0147 20.7529C62.0147 20.3551 61.8566 19.9736 61.5753 19.6923C61.294 19.411 60.9125 19.2529 60.5147 19.2529ZM36.5586 23C36.5078 22.9984 36.457 22.9994 36.4062 23.0029C36.0857 23.023 35.7801 23.1454 35.5344 23.3522C35.2886 23.5589 35.1157 23.839 35.041 24.1514L28.5693 51.3359L24.3711 41.8906C24.2649 41.6515 24.098 41.4442 23.887 41.2895C23.6759 41.1348 23.4281 41.0379 23.1681 41.0086C22.908 40.9793 22.6448 41.0185 22.4046 41.1223C22.1645 41.2262 21.9556 41.3911 21.7988 41.6006L17.75 47H2C1.80123 46.9972 1.60389 47.0339 1.41944 47.108C1.23498 47.1822 1.0671 47.2922 0.925548 47.4318C0.783994 47.5713 0.671589 47.7376 0.594868 47.921C0.518146 48.1044 0.478638 48.3012 0.478638 48.5C0.478638 48.6988 0.518146 48.8956 0.594868 49.079C0.671589 49.2624 0.783994 49.4287 0.925548 49.5682C1.0671 49.7078 1.23498 49.8178 1.41944 49.892C1.60389 49.9661 1.80123 50.0028 2 50H18.5C18.7331 50.0001 18.963 49.9459 19.1715 49.8416C19.38 49.7374 19.5614 49.586 19.7012 49.3994L22.666 45.4443L27.6289 56.6094C27.7563 56.8961 27.9703 57.1356 28.2409 57.2943C28.5115 57.453 28.8251 57.5229 29.1375 57.4941C29.4499 57.4653 29.7454 57.3393 29.9824 57.1339C30.2195 56.9284 30.3861 56.6538 30.459 56.3486L36.0811 32.7295L41.0117 69.6992C41.0575 70.0419 41.2202 70.3583 41.4723 70.5948C41.7245 70.8314 42.0506 70.9735 42.3955 70.9973C42.7404 71.0211 43.083 70.925 43.3652 70.7253C43.6474 70.5256 43.852 70.2345 43.9443 69.9014L50.1289 47.6357L53.0762 56.4746C53.1736 56.7659 53.358 57.0204 53.6047 57.2035C53.8513 57.3866 54.1482 57.4896 54.4553 57.4985C54.7623 57.5075 55.0647 57.422 55.3216 57.2535C55.5785 57.0851 55.7774 56.8418 55.8916 56.5566L58.5166 50H62.4072C62.6701 50.4553 63.048 50.8335 63.503 51.0967C63.9581 51.36 64.4743 51.4991 65 51.5C65.7957 51.5 66.5587 51.1839 67.1213 50.6213C67.6839 50.0587 68 49.2957 68 48.5C68 47.7043 67.6839 46.9413 67.1213 46.3787C66.5587 45.8161 65.7957 45.5 65 45.5C64.4738 45.5004 63.957 45.6392 63.5014 45.9025C63.0457 46.1658 62.6674 46.5443 62.4043 47H57.5C57.2004 47.0003 56.9077 47.0903 56.6596 47.2584C56.4116 47.4266 56.2196 47.6651 56.1084 47.9434L54.6289 51.6406L51.4238 42.0254C51.3221 41.7207 51.1252 41.4567 50.8621 41.2723C50.5991 41.0879 50.2838 40.9928 49.9627 41.001C49.6415 41.0092 49.3315 41.1202 49.0782 41.3178C48.8249 41.5154 48.6418 41.7891 48.5557 42.0986L43.0186 62.0322L37.9883 24.3008C37.9415 23.9502 37.7724 23.6275 37.5109 23.3894C37.2493 23.1514 36.912 23.0135 36.5586 23ZM55.9971 24.5C55.5993 24.5 55.2177 24.658 54.9364 24.9393C54.6551 25.2206 54.4971 25.6022 54.4971 26C54.4971 26.3978 54.6551 26.7794 54.9364 27.0607C55.2177 27.342 55.5993 27.5 55.9971 27.5C56.3949 27.5 56.7764 27.342 57.0577 27.0607C57.339 26.7794 57.4971 26.3978 57.4971 26C57.4971 25.6022 57.339 25.2206 57.0577 24.9393C56.7764 24.658 56.3949 24.5 55.9971 24.5ZM10.2676 24.6758C9.86975 24.6758 9.48822 24.8338 9.20692 25.1151C8.92561 25.3964 8.76758 25.778 8.76758 26.1758C8.76758 26.5736 8.92561 26.9551 9.20692 27.2364C9.48822 27.5177 9.86975 27.6758 10.2676 27.6758C10.4646 27.6758 10.6596 27.637 10.8416 27.5616C11.0236 27.4862 11.189 27.3757 11.3282 27.2364C11.4675 27.0972 11.578 26.9318 11.6534 26.7498C11.7288 26.5678 11.7676 26.3728 11.7676 26.1758C11.7676 25.9788 11.7288 25.7837 11.6534 25.6018C11.578 25.4198 11.4675 25.2544 11.3282 25.1151C11.189 24.9758 11.0236 24.8653 10.8416 24.79C10.6596 24.7146 10.4646 24.6758 10.2676 24.6758ZM101.729 24.6787C101.332 24.6787 100.95 24.8367 100.669 25.1181C100.388 25.3994 100.229 25.7809 100.229 26.1787C100.229 26.5765 100.388 26.9581 100.669 27.2394C100.95 27.5207 101.332 27.6787 101.729 27.6787C102.127 27.6787 102.509 27.5207 102.79 27.2394C103.071 26.9581 103.229 26.5765 103.229 26.1787C103.229 25.7809 103.071 25.3994 102.79 25.1181C102.509 24.8367 102.127 24.6787 101.729 24.6787ZM9.5 30.5C9.10218 30.5 8.72065 30.658 8.43934 30.9393C8.15804 31.2206 8 31.6022 8 32C8 32.3978 8.15804 32.7794 8.43934 33.0607C8.72065 33.342 9.10218 33.5 9.5 33.5C9.89783 33.5 10.2794 33.342 10.5607 33.0607C10.842 32.7794 11 32.3978 11 32C11 31.6022 10.842 31.2206 10.5607 30.9393C10.2794 30.658 9.89783 30.5 9.5 30.5ZM102.5 30.5C102.102 30.5 101.721 30.658 101.439 30.9393C101.158 31.2206 101 31.6022 101 32C101 32.3978 101.158 32.7794 101.439 33.0607C101.721 33.342 102.102 33.5 102.5 33.5C102.898 33.5 103.279 33.342 103.561 33.0607C103.842 32.7794 104 32.3978 104 32C104 31.6022 103.842 31.2206 103.561 30.9393C103.279 30.658 102.898 30.5 102.5 30.5ZM101.729 36.3242C101.332 36.3242 100.95 36.4823 100.669 36.7636C100.388 37.0449 100.229 37.4264 100.229 37.8242C100.229 38.222 100.388 38.6036 100.669 38.8849C100.95 39.1662 101.332 39.3242 101.729 39.3242C102.127 39.3242 102.509 39.1662 102.79 38.8849C103.071 38.6036 103.229 38.222 103.229 37.8242C103.229 37.4264 103.071 37.0449 102.79 36.7636C102.509 36.4823 102.127 36.3242 101.729 36.3242ZM99.4824 41.7529C99.0846 41.7529 98.7031 41.911 98.4218 42.1923C98.1405 42.4736 97.9824 42.8551 97.9824 43.2529C97.9824 43.6508 98.1405 44.0323 98.4218 44.3136C98.7031 44.5949 99.0846 44.7529 99.4824 44.7529C99.8802 44.7529 100.262 44.5949 100.543 44.3136C100.824 44.0323 100.982 43.6508 100.982 43.2529C100.982 42.8551 100.824 42.4736 100.543 42.1923C100.262 41.911 99.8802 41.7529 99.4824 41.7529ZM86 52.9443C85.4949 52.9443 84.9909 53.197 84.7021 53.6973L62.2022 92.6973C61.9337 93.1608 61.9352 93.7323 62.2022 94.1973C62.4692 94.6623 62.9645 94.9473 63.5 94.9473H108.5C109.036 94.9473 109.531 94.6623 109.798 94.1973C110.065 93.7338 110.066 93.1623 109.798 92.6973L87.2979 53.6973C87.0091 53.197 86.5051 52.9443 86 52.9443ZM9.04004 53C22.192 71.009 48.3383 88.7838 55.1768 93.2568C56.0363 93.8193 57.1907 93.3651 57.4502 92.3721C57.6137 91.7466 57.3692 91.0853 56.8262 90.7373C49.3307 85.9328 25.8355 69.7235 12.79 53H9.04004ZM86 57.4473L105.904 92H66.0957L86 57.4473ZM83.7705 68L84.1309 81.4473H87.8545L88.2324 68H83.7705ZM86 84.2246C84.377 84.2246 83.3633 85.1671 83.3633 86.7031C83.3633 88.2256 84.377 89.167 86 89.167C87.638 89.167 88.6367 88.2241 88.6367 86.7031C88.6367 85.1671 87.638 84.2246 86 84.2246Z" fill="white"/>
</svg>
