<svg width="110" height="120" viewBox="0 0 110 120" fill="none" xmlns="http://www.w3.org/2000/svg">
<path d="M55 0.655273L54.1614 1.07275C54.1614 1.07275 32.0312 12.125 2.5 12.125H0.625V14C0.625 57.5054 13.9219 83.8053 27.3401 99.1404C40.7583 114.475 54.425 118.908 54.425 118.908L55 119.095L55.575 118.908C55.575 118.908 69.2417 114.475 82.6599 99.1404C96.0781 83.8053 109.375 57.5054 109.375 14V12.125H107.5C77.9688 12.125 55.8386 1.07275 55.8386 1.07275L55 0.655273ZM55 4.79712C57.1549 5.83796 77.6513 15.3305 105.555 15.7871C105.184 57.4003 92.4836 82.2224 79.8401 96.6721C67.4751 110.804 55.8664 114.774 55 115.063C54.1336 114.774 42.5249 110.804 30.1599 96.6721C17.5164 82.2224 4.81642 57.4003 4.44458 15.7871C32.3487 15.3305 52.8451 5.83796 55 4.79712ZM51.4807 14.4797L50.8325 14.5969L50.6567 14.6628L49.5142 15.897L49.8218 17.5486L51.3269 18.2957L51.9788 18.1748L52.1545 18.1089L53.2935 16.8748L52.9895 15.2231L51.4807 14.4797ZM59.1272 14.6152L57.4609 14.813L56.6223 16.2705L57.2852 17.8123L57.8564 18.1418L58.0322 18.2041L59.7021 18.0063L60.5408 16.5525L59.8779 15.0071L59.303 14.6775L59.1272 14.6152ZM44.3396 16.9626L43.6841 17.0396L43.5046 17.0908L42.2852 18.248L42.4829 19.918L43.9368 20.7603L44.5923 20.6797L44.7717 20.6284L45.9912 19.4712L45.7935 17.8013L44.3396 16.9626ZM66.2939 17.0396L64.6423 17.3362L63.8916 18.8413L64.646 20.3428L65.2356 20.6357L65.415 20.6907L67.0703 20.3904L67.821 18.8889L67.0667 17.3875L66.4734 17.0908L66.2939 17.0396ZM37.0667 19.0464L36.4038 19.0793L36.2244 19.1233L34.9316 20.2L35.0232 21.8772L36.4221 22.811L37.0813 22.7744L37.2644 22.7305L38.5535 21.6538L38.4619 19.9766L37.0667 19.0464ZM73.6328 19.0757L71.9885 19.4272L71.2891 20.958L72.0947 22.4302L72.6953 22.7048L72.8784 22.7524L74.519 22.4009L75.2185 20.8701L74.4128 19.3979L73.8123 19.1233L73.6328 19.0757ZM29.6326 20.7126L28.9734 20.7236L28.7903 20.7603L27.4646 21.793L27.4939 23.4739L28.8599 24.4517L29.5227 24.4407L29.7058 24.4041L31.0315 23.3713L30.9985 21.6904L29.6326 20.7126ZM80.9827 20.731L79.3713 21.207L78.7891 22.7817L79.7009 24.1953L80.3235 24.4224L80.5066 24.4553L82.1179 23.9792L82.7002 22.4045L81.7883 20.9946L81.1694 20.7639L80.9827 20.731ZM88.479 21.9797L86.8896 22.5217L86.3733 24.1221L87.3438 25.4917L87.9736 25.6931L88.1604 25.7188L89.7498 25.1768L90.2661 23.5764L89.292 22.2068L88.6658 22.0054L88.479 21.9797ZM21.4771 22.0127L21.2903 22.042L19.928 23.0234L19.895 24.7043L21.2244 25.7334L21.8835 25.7444L22.0703 25.7151L23.4326 24.7336L23.4619 23.0564L22.1362 22.0237L21.4771 22.0127ZM14.1638 22.866C14.1198 22.8656 14.0759 22.8669 14.032 22.8696C13.9227 22.876 13.8948 22.8796 13.9404 22.877L12.1753 22.9832V24.8289C12.1698 25.2083 12.2795 25.5804 12.49 25.8962C12.7005 26.2119 13.0018 26.4563 13.3542 26.5972C13.7065 26.7381 14.0933 26.7687 14.4635 26.6851C14.8336 26.6015 15.1697 26.4075 15.4272 26.1289C15.7075 25.8742 15.9041 25.5406 15.9911 25.1721C16.0781 24.8035 16.0515 24.4172 15.9148 24.0641C15.778 23.7109 15.5376 23.4074 15.225 23.1936C14.9125 22.9797 14.5425 22.8655 14.1638 22.866ZM95.7812 22.866C95.4011 22.8766 95.0331 23.0025 94.7262 23.2271C94.4193 23.4517 94.1879 23.7643 94.0627 24.1234C93.9376 24.4825 93.9246 24.8712 94.0255 25.2379C94.1264 25.6046 94.3364 25.932 94.6277 26.1765C94.6301 26.179 94.6326 26.1814 94.635 26.1838C94.8996 26.4454 95.2361 26.6224 95.6016 26.6922C95.9671 26.762 96.3451 26.7215 96.6875 26.5758C97.0299 26.4301 97.3212 26.1859 97.5244 25.8741C97.7275 25.5624 97.8334 25.1973 97.8284 24.8252V22.9832L96.0632 22.877C96.1088 22.8796 96.0773 22.876 95.968 22.8696C95.9059 22.8653 95.8435 22.8641 95.7812 22.866ZM95.3198 30.6333L94.0015 31.677L93.833 32.3179L93.8147 32.5083L94.4409 34.0647L96.0669 34.4968L97.3853 33.4531L97.5537 32.8159L97.5684 32.6255L96.9421 31.0654L95.3198 30.6333ZM13.6621 30.7834L12.4866 31.9846L12.3987 32.6365L12.4023 32.7134V32.7427L12.406 32.772L12.4133 32.8855L13.2739 34.3284L14.9438 34.5042L16.0828 33.27L16.1523 32.6145L16.1487 32.5559L16.145 32.4973V32.479L15.3284 31.0105L13.6621 30.7834ZM94.646 38.4116L93.2617 39.3638L93.0493 39.99L93.02 40.1768L93.5437 41.7734L95.1331 42.3154L96.5173 41.3633L96.7297 40.7371L96.759 40.5466L96.239 38.95L94.646 38.4116ZM14.2041 38.6973L13.1421 40.001L13.1128 40.6602L13.1384 40.8506L14.0833 42.2385L15.7605 42.3118L16.8262 41.0117L16.8555 40.3525L16.8298 40.1621L15.8813 38.7705L14.2041 38.6973ZM55 40.25C49.8447 40.25 45.625 44.4697 45.625 49.625C45.625 52.7314 47.3528 55.2576 49.6899 56.9565L47.1631 72.125H62.8369L60.3101 56.9565C62.6472 55.2576 64.375 52.7314 64.375 49.625C64.375 44.4697 60.1553 40.25 55 40.25ZM55 44C58.1284 44 60.625 46.4966 60.625 49.625C60.625 51.8457 59.3389 53.7229 57.4719 54.6458L56.2268 55.261L58.4131 68.375H51.5869L53.7732 55.261L52.5281 54.6458C50.6611 53.7229 49.375 51.8457 49.375 49.625C49.375 46.4966 51.8716 44 55 44ZM93.4082 46.113L91.9617 46.9736L91.709 47.5815L91.6687 47.7683L92.0789 49.3979L93.6316 50.0425L95.0781 49.1855L95.3308 48.574L95.3711 48.3872L94.9573 46.7576L93.4082 46.113ZM17.002 46.5049L15.321 46.5378L14.3433 47.9001L14.3542 48.563L14.3909 48.7498L15.4236 50.0791L17.1045 50.0461L18.0823 48.6802L18.0713 48.021L18.0347 47.8306L17.002 46.5049ZM91.5881 53.7009L90.0903 54.4626L89.7974 55.0522L89.7424 55.239L90.0464 56.8906L91.5515 57.6377L93.053 56.876L93.3459 56.2827L93.3972 56.0996L93.0933 54.448L91.5881 53.7009ZM18.6755 54.1367L17.002 54.2759L16.1084 55.7004L16.1633 56.356L16.2109 56.5427L17.3242 57.8025L19.0015 57.6633L19.8914 56.2388L19.8364 55.5796L19.7888 55.3928L18.6755 54.1367ZM89.2297 61.124L87.666 61.7319L87.3145 62.2959L87.2449 62.4717L87.384 64.1453L88.8123 65.0352L90.376 64.4236L90.7275 63.8633L90.7971 63.6875L90.6543 62.0103L89.2297 61.124ZM20.8911 61.5891L19.2395 61.8857L18.4888 63.3909L18.606 64.0427L18.6755 64.2222L19.9023 65.3647L21.5576 65.0681L22.3083 63.563L22.1875 62.9148L22.1216 62.7317L20.8911 61.5891ZM86.1682 68.3127L84.5789 68.8474L84.2017 69.3894L84.1211 69.5652L84.187 71.2424L85.5676 72.1982L87.1606 71.6636L87.5342 71.1179L87.6147 70.9458L87.5525 69.2649L86.1682 68.3127ZM23.8025 68.8145L22.1802 69.2466L21.554 70.803L21.7224 71.4438L21.803 71.616L23.1213 72.6597L24.7473 72.2275L25.3735 70.6711L25.2014 70.0303L25.1208 69.8582L23.8025 68.8145ZM82.6343 75.2305L80.9863 75.571L80.5505 76.0654L80.448 76.2302L80.3088 77.9038L81.5649 79.0171L83.2129 78.6765L83.6487 78.1821L83.7512 78.021L83.8904 76.3474L82.6343 75.2305ZM27.2229 75.7651L25.6628 76.3987L25.238 78.021L25.4871 78.6362L25.5896 78.7974L27.0288 79.6653L28.5852 79.0354L29.01 77.4094L28.761 76.7979L28.6584 76.6331L27.2229 75.7651ZM78.4412 81.8149L76.7786 82.0603L76.3135 82.5291L76.2036 82.6865L75.9656 84.3491L77.1594 85.5356L78.822 85.2903L79.2871 84.8215L79.397 84.6641L79.6313 83.0015L78.4412 81.8149ZM31.4709 82.3203L29.9585 83.0454L29.6326 84.6934L29.9146 85.2903L30.0281 85.4478L31.5149 86.2278L33.031 85.5027L33.3569 83.8547L33.0713 83.2578L32.9614 83.1003L31.4709 82.3203ZM73.75 88.0222L72.0728 88.0881L71.5601 88.502L71.4319 88.6484L71.0217 90.2744L72.0764 91.5818L73.7573 91.5159L74.27 91.0984L74.3945 90.9556L74.8083 89.3259L73.75 88.0222ZM36.2427 88.4287L34.8218 89.3259L34.6863 90.9995L35.0378 91.5598L35.1697 91.7026L36.7371 92.3032L38.158 91.4097L38.2935 89.7361L37.9419 89.1758L37.8101 89.033L36.2427 88.4287ZM66.8433 93.6838L66.2903 94.0464L66.1511 94.1782L65.5762 95.7566L66.499 97.1592L68.1763 97.2654L68.7292 96.9028L68.8684 96.771L69.4434 95.1926L68.5205 93.7864L66.8433 93.6838ZM41.6443 94.0061L40.3259 95.0425L40.3699 96.7234L40.7764 97.2434L40.9229 97.3716L42.5452 97.8037L43.8635 96.7673L43.8232 95.0864L43.4131 94.5664L43.2703 94.4382L41.6443 94.0061ZM61.0791 98.7339L60.4932 99.0415L60.343 99.1587L59.6179 100.675L60.3979 102.162L62.0569 102.429L62.6428 102.121L62.793 102.004L63.5181 100.488L62.738 99.0012L61.0791 98.7339ZM47.6392 98.9536L46.427 100.115L46.6284 101.781L47.0825 102.26L47.24 102.374L48.8953 102.652L50.1111 101.491L49.9097 99.8252L49.4519 99.3455L49.2981 99.2319L47.6392 98.9536ZM54.8499 102.96C54.4287 102.969 54.0228 103.119 53.6976 103.387C53.3723 103.655 53.1467 104.024 53.057 104.436C52.9673 104.847 53.0189 105.277 53.2033 105.656C53.3877 106.034 53.6942 106.34 54.0735 106.523C54.0679 106.52 54.0922 106.534 54.1504 106.563L54.989 106.981L55.9082 106.523C56.2929 106.335 56.6017 106.022 56.7834 105.634C56.965 105.246 57.0086 104.808 56.9068 104.392C56.8049 103.976 56.5639 103.608 56.2237 103.348C55.8835 103.088 55.4646 102.952 55.0366 102.964C55.0317 102.964 55.0269 102.964 55.022 102.964C54.9647 102.96 54.9073 102.959 54.8499 102.96Z" fill="#2D1B1B"/>
</svg>
