<svg width="94" height="94" viewBox="0 0 94 94" fill="none" xmlns="http://www.w3.org/2000/svg">
<path d="M48.5029 0.497073C47.6734 0.497073 47.0029 1.16757 47.0029 1.99707C47.0029 2.82657 47.6749 3.49857 48.5029 3.49707C49.3324 3.49707 50.0044 2.82507 50.0029 1.99707C50.0014 1.16907 49.3309 0.495573 48.5029 0.497073ZM18.7461 0.508792C16.2234 0.508792 13.7014 1.46948 11.7852 3.38574L8.33398 6.83399C7.15016 8.0168 6.2723 9.76905 5.38379 11.8438C4.49528 13.9185 3.66992 16.2945 2.95508 18.5557C1.52539 23.078 0.541016 27.1484 0.541016 27.1484L0.435547 27.5938L0.59375 28.0215C0.59375 28.0215 8.52598 49.4537 26.5361 67.4639C44.5463 85.474 65.9785 93.4062 65.9785 93.4062L66.4062 93.5645L66.8516 93.459C66.8516 93.459 70.9219 92.4744 75.4443 91.0449C77.7056 90.3302 80.0814 89.5045 82.1562 88.6162C84.2311 87.7279 85.9829 86.8491 87.166 85.666L90.6172 82.2178C94.4497 78.3852 94.4497 72.1255 90.6172 68.293L79.7188 57.3945C76.2163 53.8921 70.4917 53.8921 66.9893 57.3945L55.3818 69.002C54.0415 68.3636 45.0022 63.9836 37.5107 56.4922C30.0173 48.9987 25.6344 39.9544 24.998 38.6182L36.6055 27.0107C40.1079 23.5083 40.1079 17.7866 36.6055 14.2842L25.707 3.38574C23.7908 1.46948 21.2688 0.508792 18.7461 0.508792ZM54.374 0.883792C53.5535 0.775792 52.8004 1.35378 52.6924 2.17579C52.5844 2.99629 53.1594 3.74942 53.9814 3.85742C54.8019 3.96542 55.558 3.39036 55.666 2.56836C55.774 1.74786 55.196 0.991792 54.374 0.883792ZM59.5537 1.99414C58.9748 2.07486 58.4695 2.49315 58.3086 3.09278C58.0941 3.89228 58.5696 4.71519 59.3691 4.92969C60.1701 5.14419 60.9945 4.67014 61.209 3.86914C61.4235 3.06964 60.9479 2.24673 60.1484 2.03223C59.9486 1.9786 59.7467 1.96724 59.5537 1.99414ZM18.7461 3.49121C20.4947 3.49121 22.2427 4.16361 23.5859 5.50684L34.4844 16.4053C36.8409 18.7618 36.8409 22.5331 34.4844 24.8897L21.3477 38.0264L21.7842 38.9756C21.7842 38.9756 26.8286 50.0522 35.3896 58.6133C43.9507 67.1743 55.0273 72.2188 55.0273 72.2188L55.9766 72.6523L69.1104 59.5156C71.4669 57.1591 75.2411 57.1591 77.5977 59.5156L88.4961 70.4141C91.0164 72.9344 91.1412 76.8664 88.9326 79.5635C88.8391 79.2562 88.6495 78.987 88.3916 78.7956C88.1337 78.6041 87.8212 78.5005 87.5 78.5C87.1022 78.5 86.7206 78.658 86.4393 78.9393C86.158 79.2206 86 79.6022 86 80C86.0005 80.3342 86.1126 80.6587 86.3185 80.922C86.5245 81.1852 86.8124 81.3722 87.1367 81.4531L85.0449 83.5449C84.479 84.1108 82.9049 85.0334 80.9756 85.8594C79.0463 86.6853 76.7422 87.4892 74.5391 88.1855C70.3682 89.5039 66.9902 90.3189 66.5967 90.415C65.4012 89.9606 45.6121 82.2977 28.6572 65.3428C11.7023 48.3879 4.03935 28.5988 3.58496 27.4033C3.68107 27.0098 4.49593 23.6316 5.81445 19.4609C6.51092 17.2579 7.3145 14.9535 8.14062 13.0244C8.96675 11.0954 9.88915 9.52052 10.4551 8.95508L12.5469 6.86621C12.6284 7.18995 12.8156 7.47725 13.0788 7.68262C13.342 7.88798 13.6662 7.99967 14 8C14.3978 8 14.7794 7.84197 15.0607 7.56066C15.342 7.27936 15.5 6.89783 15.5 6.5C15.4999 6.17956 15.3971 5.86758 15.2068 5.60978C15.0165 5.35197 14.7486 5.16189 14.4424 5.06739C15.7012 4.03748 17.2151 3.49121 18.7461 3.49121ZM65.1377 3.80762C64.5533 3.81177 63.9992 4.1574 63.7607 4.7334C63.4457 5.4999 63.8102 6.38129 64.5752 6.69629C65.3402 7.01279 66.2172 6.64984 66.5352 5.88184C66.8517 5.11534 66.4887 4.23988 65.7207 3.92188C65.5294 3.84275 65.3325 3.80624 65.1377 3.80762ZM70.4375 6.33594C69.8572 6.26408 69.2626 6.5394 68.9521 7.07715C68.5381 7.79415 68.7859 8.7125 69.5029 9.125C70.2199 9.539 71.1368 9.29415 71.5508 8.57715C71.9648 7.86015 71.7199 6.94037 71.0029 6.52637C70.8233 6.42287 70.6309 6.35989 70.4375 6.33594ZM18.5 9.5C18.1022 9.5 17.7206 9.65804 17.4393 9.93934C17.158 10.2206 17 10.6022 17 11C17 11.3978 17.158 11.7794 17.4393 12.0607C17.7206 12.342 18.1022 12.5 18.5 12.5C18.8978 12.5 19.2794 12.342 19.5607 12.0607C19.842 11.7794 20 11.3978 20 11C20 10.6022 19.842 10.2206 19.5607 9.93934C19.2794 9.65804 18.8978 9.5 18.5 9.5ZM74.7822 9.5C74.4018 9.55007 74.0411 9.74497 73.7891 10.0742C73.2866 10.7312 73.4119 11.6752 74.0674 12.1777C74.7244 12.6832 75.6669 12.5579 76.1709 11.8994C76.6764 11.2424 76.5511 10.2999 75.8926 9.7959C75.5633 9.5439 75.1627 9.44994 74.7822 9.5ZM48.5029 12.5C48.1051 12.5 47.7236 12.658 47.4423 12.9393C47.161 13.2206 47.0029 13.6022 47.0029 14C47.0029 14.3978 47.161 14.7794 47.4423 15.0607C47.7236 15.342 48.1051 15.5 48.5029 15.5C48.9008 15.5 49.2823 15.342 49.5636 15.0607C49.8449 14.7794 50.0029 14.3978 50.0029 14C50.0029 13.6022 49.8449 13.2206 49.5636 12.9393C49.2823 12.658 48.9008 12.5 48.5029 12.5ZM54.6465 13.1006C54.2487 13.1006 53.8671 13.2586 53.5858 13.5399C53.3045 13.8212 53.1465 14.2028 53.1465 14.6006C53.1465 14.9984 53.3045 15.3799 53.5858 15.6613C53.8671 15.9426 54.2487 16.1006 54.6465 16.1006C55.0443 16.1006 55.4258 15.9426 55.7071 15.6613C55.9884 15.3799 56.1465 14.9984 56.1465 14.6006C56.1465 14.2028 55.9884 13.8212 55.7071 13.5399C55.4258 13.2586 55.0443 13.1006 54.6465 13.1006ZM79.2588 13.2412C78.875 13.2412 78.4937 13.3852 78.2012 13.6777C77.6162 14.2627 77.6162 15.2138 78.2012 15.7988C78.7862 16.3838 79.7373 16.3838 80.3223 15.7988C80.9073 15.2138 80.9073 14.2627 80.3223 13.6777C80.029 13.3852 79.6426 13.2412 79.2588 13.2412ZM23 14C22.6022 14 22.2206 14.158 21.9393 14.4393C21.658 14.7206 21.5 15.1022 21.5 15.5C21.5 15.8978 21.658 16.2794 21.9393 16.5607C22.2206 16.842 22.6022 17 23 17C23.3978 17 23.7794 16.842 24.0607 16.5607C24.342 16.2794 24.5 15.8978 24.5 15.5C24.5 15.1022 24.342 14.7206 24.0607 14.4393C23.7794 14.158 23.3978 14 23 14ZM60.5557 14.8965C60.1578 14.8965 59.7763 15.0545 59.495 15.3358C59.2137 15.6171 59.0557 15.9987 59.0557 16.3965C59.0557 16.7943 59.2137 17.1758 59.495 17.4571C59.7763 17.7385 60.1578 17.8965 60.5557 17.8965C60.9535 17.8965 61.335 17.7385 61.6163 17.4571C61.8976 17.1758 62.0557 16.7943 62.0557 16.3965C62.0557 15.9987 61.8976 15.6171 61.6163 15.3358C61.335 15.0545 60.9535 14.8965 60.5557 14.8965ZM83.208 17.5303C82.8276 17.4802 82.4262 17.5771 82.0977 17.8291C81.4407 18.3346 81.3183 19.2727 81.8223 19.9297C82.3278 20.5867 83.2659 20.712 83.9229 20.208C84.5798 19.7025 84.7052 18.7615 84.2012 18.1045C83.9484 17.7752 83.5884 17.5803 83.208 17.5303ZM66.002 17.8057C65.6041 17.8057 65.2226 17.9637 64.9413 18.245C64.66 18.5263 64.502 18.9078 64.502 19.3057C64.502 19.7035 64.66 20.085 64.9413 20.3663C65.2226 20.6476 65.6041 20.8057 66.002 20.8057C66.3998 20.8057 66.7813 20.6476 67.0626 20.3663C67.3439 20.085 67.502 19.7035 67.502 19.3057C67.502 18.9078 67.3439 18.5263 67.0626 18.245C66.7813 17.9637 66.3998 17.8057 66.002 17.8057ZM27.5 18.5C27.1022 18.5 26.7206 18.658 26.4393 18.9393C26.158 19.2206 26 19.6022 26 20C26 20.3978 26.158 20.7794 26.4393 21.0607C26.7206 21.342 27.1022 21.5 27.5 21.5C27.8978 21.5 28.2794 21.342 28.5607 21.0607C28.842 20.7794 29 20.3978 29 20C29 19.6022 28.842 19.2206 28.5607 18.9393C28.2794 18.658 27.8978 18.5 27.5 18.5ZM70.7744 21.7256C70.3766 21.7256 69.9951 21.8836 69.7138 22.1649C69.4324 22.4462 69.2744 22.8278 69.2744 23.2256C69.2744 23.6234 69.4324 24.0049 69.7138 24.2863C69.9951 24.5676 70.3766 24.7256 70.7744 24.7256C71.1722 24.7256 71.5538 24.5676 71.8351 24.2863C72.1164 24.0049 72.2744 23.6234 72.2744 23.2256C72.2744 22.8278 72.1164 22.4462 71.8351 22.1649C71.5538 21.8836 71.1722 21.7256 70.7744 21.7256ZM85.9883 22.2588C85.795 22.2827 85.6021 22.3457 85.4229 22.4492C84.7044 22.8632 84.461 23.7801 84.875 24.4971C85.289 25.2141 86.2058 25.4619 86.9229 25.0479C87.6399 24.6339 87.8876 23.7141 87.4736 22.9971C87.162 22.4593 86.568 22.1869 85.9883 22.2588ZM32 23C31.6022 23 31.2206 23.158 30.9393 23.4393C30.658 23.7206 30.5 24.1022 30.5 24.5C30.5 24.8978 30.658 25.2794 30.9393 25.5607C31.2206 25.842 31.6022 26 32 26C32.3978 26 32.7794 25.842 33.0607 25.5607C33.342 25.2794 33.5 24.8978 33.5 24.5C33.5 24.1022 33.342 23.7206 33.0607 23.4393C32.7794 23.158 32.3978 23 32 23ZM48.5 24.4971C47.672 24.4971 47.0015 25.1691 47 25.9971C47 26.8266 47.672 27.4986 48.5 27.4971C49.3295 27.4971 50.0015 26.8251 50 25.9971C50 25.1676 49.328 24.4956 48.5 24.4971ZM53.3428 25.1768C52.7638 25.2575 52.2585 25.6758 52.0977 26.2754C51.8832 27.0749 52.3587 27.8978 53.1582 28.1123C53.9577 28.3268 54.7806 27.8513 54.9951 27.0518C55.2096 26.2523 54.7341 25.4293 53.9346 25.2148C53.7347 25.1612 53.5358 25.1499 53.3428 25.1768ZM74.6973 26.4951C74.2994 26.4951 73.9179 26.6532 73.6366 26.9345C73.3553 27.2158 73.1973 27.5973 73.1973 27.9951C73.1973 28.3929 73.3553 28.7745 73.6366 29.0558C73.9179 29.3371 74.2994 29.4951 74.6973 29.4951C75.0951 29.4951 75.4766 29.3371 75.7579 29.0558C76.0392 28.7745 76.1973 28.3929 76.1973 27.9951C76.1973 27.5973 76.0392 27.2158 75.7579 26.9345C75.4766 26.6532 75.0951 26.4951 74.6973 26.4951ZM58.4346 27.1221C57.8545 27.0502 57.2626 27.3226 56.9521 27.8604C56.5381 28.5774 56.783 29.4971 57.5 29.9111C58.2185 30.3251 59.1339 30.0774 59.5479 29.3604C59.9619 28.6419 59.717 27.7265 59 27.3125C58.8208 27.209 58.6279 27.146 58.4346 27.1221ZM88.6982 27.3506C88.5033 27.3493 88.3065 27.3883 88.1152 27.4678C87.3502 27.7843 86.9858 28.6612 87.3008 29.4277C87.6173 30.1927 88.4972 30.5543 89.2637 30.2393C90.0287 29.9228 90.3902 29.0458 90.0752 28.2793C89.8378 27.7033 89.283 27.3545 88.6982 27.3506ZM62.29 30.21C61.906 30.21 61.522 30.3562 61.2295 30.6494C60.6445 31.2344 60.6445 32.1855 61.2295 32.7705C61.8145 33.3555 62.7656 33.3555 63.3506 32.7705C63.9356 32.1855 63.9356 31.2344 63.3506 30.6494C63.0581 30.3562 62.674 30.21 62.29 30.21ZM77.6035 31.9414C77.2057 31.9414 76.8242 32.0994 76.5429 32.3808C76.2616 32.6621 76.1035 33.0436 76.1035 33.4414C76.1035 33.8392 76.2616 34.2208 76.5429 34.5021C76.8242 34.7834 77.2057 34.9414 77.6035 34.9414C78.0013 34.9414 78.3829 34.7834 78.6642 34.5021C78.9455 34.2208 79.1035 33.8392 79.1035 33.4414C79.1035 33.0436 78.9455 32.6621 78.6642 32.3808C78.3829 32.0994 78.0013 31.9414 77.6035 31.9414ZM90.7256 32.7529C90.5326 32.726 90.3307 32.7378 90.1309 32.791C89.3314 33.0055 88.8558 33.8284 89.0703 34.6279C89.2848 35.4274 90.1077 35.903 90.9072 35.6885C91.7067 35.474 92.1823 34.6511 91.9678 33.8516C91.8069 33.2519 91.3045 32.8339 90.7256 32.7529ZM65.2021 34.2588C65.0088 34.2827 64.8189 34.3457 64.6396 34.4492C63.9212 34.8632 63.6749 35.7801 64.0889 36.4971C64.5029 37.2141 65.4226 37.4619 66.1396 37.0479C66.8567 36.6339 67.1015 35.7141 66.6875 34.9971C66.377 34.4593 65.7822 34.1869 65.2021 34.2588ZM79.3994 37.8506C79.0016 37.8506 78.6201 38.0086 78.3388 38.2899C78.0574 38.5712 77.8994 38.9528 77.8994 39.3506C77.8994 39.7484 78.0574 40.1299 78.3388 40.4113C78.6201 40.6926 79.0016 40.8506 79.3994 40.8506C79.7972 40.8506 80.1788 40.6926 80.4601 40.4113C80.7414 40.1299 80.8994 39.7484 80.8994 39.3506C80.8994 38.9528 80.7414 38.5712 80.4601 38.2899C80.1788 38.0086 79.7972 37.8506 79.3994 37.8506ZM91.4316 38.334C90.6096 38.442 90.0346 39.1951 90.1426 40.0156C90.2506 40.8361 91.0022 41.4156 91.8242 41.3076C92.6447 41.1996 93.2242 40.445 93.1162 39.6231C93.0067 38.801 92.2536 38.226 91.4316 38.334ZM67.543 38.9668C67.35 38.9401 67.1481 38.9509 66.9482 39.0049C66.1487 39.2194 65.6732 40.0423 65.8877 40.8418C66.1022 41.6413 66.9251 42.1168 67.7246 41.9023C68.5241 41.6878 68.9997 40.8649 68.7852 40.0654C68.6243 39.4647 68.1219 39.047 67.543 38.9668ZM68 43.9971C67.172 43.9971 66.5015 44.6691 66.5 45.4971C66.5 46.3266 67.172 46.9986 68 46.9971C68.8295 46.9971 69.5015 46.3251 69.5 45.4971C69.5 44.6676 68.828 43.9956 68 43.9971ZM92.0029 43.9971C91.1734 43.9971 90.5029 44.6676 90.5029 45.4971C90.5029 46.3266 91.1749 46.9986 92.0029 46.9971C92.8324 46.9971 93.5044 46.3251 93.5029 45.4971C93.5014 44.6691 92.8309 43.9956 92.0029 43.9971ZM80 44C79.6022 44 79.2206 44.158 78.9393 44.4393C78.658 44.7206 78.5 45.1022 78.5 45.5C78.5 45.8978 78.658 46.2794 78.9393 46.5607C79.2206 46.842 79.6022 47 80 47C80.3978 47 80.7794 46.842 81.0607 46.5607C81.342 46.2794 81.5 45.8978 81.5 45.5C81.5 45.1022 81.342 44.7206 81.0607 44.4393C80.7794 44.158 80.3978 44 80 44ZM69.5 60.5C69.1022 60.5 68.7206 60.658 68.4393 60.9393C68.158 61.2206 68 61.6022 68 62C68 62.3978 68.158 62.7794 68.4393 63.0607C68.7206 63.342 69.1022 63.5 69.5 63.5C69.8978 63.5 70.2794 63.342 70.5607 63.0607C70.842 62.7794 71 62.3978 71 62C71 61.6022 70.842 61.2206 70.5607 60.9393C70.2794 60.658 69.8978 60.5 69.5 60.5ZM74 65C73.6022 65 73.2206 65.158 72.9393 65.4393C72.658 65.7206 72.5 66.1022 72.5 66.5C72.5 66.8978 72.658 67.2794 72.9393 67.5607C73.2206 67.842 73.6022 68 74 68C74.3978 68 74.7794 67.842 75.0607 67.5607C75.342 67.2794 75.5 66.8978 75.5 66.5C75.5 66.1022 75.342 65.7206 75.0607 65.4393C74.7794 65.158 74.3978 65 74 65ZM78.5 69.5C78.1022 69.5 77.7206 69.658 77.4393 69.9393C77.158 70.2206 77 70.6022 77 71C77 71.3978 77.158 71.7794 77.4393 72.0607C77.7206 72.342 78.1022 72.5 78.5 72.5C78.8978 72.5 79.2794 72.342 79.5607 72.0607C79.842 71.7794 80 71.3978 80 71C80 70.6022 79.842 70.2206 79.5607 69.9393C79.2794 69.658 78.8978 69.5 78.5 69.5ZM83 74C82.6022 74 82.2206 74.158 81.9393 74.4393C81.658 74.7206 81.5 75.1022 81.5 75.5C81.5 75.8978 81.658 76.2794 81.9393 76.5607C82.2206 76.842 82.6022 77 83 77C83.3978 77 83.7794 76.842 84.0607 76.5607C84.342 76.2794 84.5 75.8978 84.5 75.5C84.5 75.1022 84.342 74.7206 84.0607 74.4393C83.7794 74.158 83.3978 74 83 74Z" fill="white"/>
</svg>
