<svg width="98" height="119" viewBox="0 0 98 119" fill="none" xmlns="http://www.w3.org/2000/svg">
<path d="M49 0C35.3403 0 22.0103 5.77148 22.0103 5.77148L21.0215 6.20361L20.8896 7.26562C20.8896 7.26562 19 22.2949 19 33.75V48.75H19.0293C19.0879 49.8047 19.3955 50.7349 19.6665 51.6504C19.813 52.1631 19.9595 52.6392 20.0547 52.998C20.1499 53.3569 20.1719 53.7085 20.1719 53.4375C20.1719 55.9863 22.3105 57.9785 24.8301 58.0664C25.1743 65.332 28.6753 71.748 34 75.9741V82.9688C31.2974 83.7891 24.8081 85.8838 18.2017 89.0039C13.8877 91.04 9.55176 93.4937 6.17529 96.4014C2.79883 99.3091 0.25 102.788 0.25 106.875V118.125H97.75V106.875C97.75 102.788 95.2012 99.3091 91.8247 96.4014C88.4482 93.4937 84.1123 91.04 79.7983 89.0039C73.1919 85.8838 66.7026 83.7891 64 82.9688V75.9814C69.3247 71.7554 72.8257 65.3394 73.1699 58.0664C75.6895 57.9785 77.8281 55.9863 77.8281 53.4375C77.8281 53.7085 77.8501 53.3569 77.9453 52.998C78.0405 52.6392 78.187 52.1631 78.3335 51.6504C78.6045 50.7349 78.9121 49.8047 78.9707 48.75H79V33.75C79 22.2949 77.1104 7.26562 77.1104 7.26562L76.9785 6.20361L75.9897 5.77148C75.9897 5.77148 62.6597 0 49 0ZM49 3.75C60.8066 3.75 72.0493 8.28369 73.5142 8.88428C73.7119 10.5249 74.979 21.8262 75.1475 31.875H61.9785C61.0557 25.5322 55.5918 20.625 49 20.625C42.4082 20.625 36.9443 25.5322 36.0215 31.875H22.8525C23.021 21.8262 24.2881 10.5249 24.4858 8.88428C25.9507 8.28369 37.1934 3.75 49 3.75ZM26.5 22.5C25.4673 22.5 24.625 23.3423 24.625 24.375C24.625 25.4077 25.4673 26.25 26.5 26.25C27.5327 26.25 28.375 25.4077 28.375 24.375C28.375 23.3423 27.5327 22.5 26.5 22.5ZM34 22.5C32.9673 22.5 32.125 23.3423 32.125 24.375C32.125 25.4077 32.9673 26.25 34 26.25C35.0327 26.25 35.875 25.4077 35.875 24.375C35.875 23.3423 35.0327 22.5 34 22.5ZM64 22.5C62.9673 22.5 62.125 23.3423 62.125 24.375C62.125 25.4077 62.9673 26.25 64 26.25C65.0327 26.25 65.875 25.4077 65.875 24.375C65.875 23.3423 65.0327 22.5 64 22.5ZM71.5 22.5C70.4673 22.5 69.625 23.3423 69.625 24.375C69.625 25.4077 70.4673 26.25 71.5 26.25C72.5327 26.25 73.375 25.4077 73.375 24.375C73.375 23.3423 72.5327 22.5 71.5 22.5ZM49 24.375C54.2002 24.375 58.375 28.5498 58.375 33.75C58.375 38.9502 54.2002 43.125 49 43.125C43.7998 43.125 39.625 38.9502 39.625 33.75C39.625 28.5498 43.7998 24.375 49 24.375ZM49 31.875C47.9673 31.875 47.125 32.7173 47.125 33.75C47.125 34.7827 47.9673 35.625 49 35.625C50.0327 35.625 50.875 34.7827 50.875 33.75C50.875 32.7173 50.0327 31.875 49 31.875ZM22.75 35.625H26.6099C25.4014 37.7637 24.6396 40.2979 24.6323 43.1836C24.5298 43.1689 24.5518 43.125 24.3906 43.125C23.8193 43.125 23.27 43.2349 22.75 43.4033V35.625ZM31.2095 35.625H36.0215C36.9443 41.9678 42.4082 46.875 49 46.875C55.5918 46.875 61.0557 41.9678 61.9785 35.625H66.8931C67.772 36.7163 69.625 39.4482 69.625 43.125V49.3213L72.4448 47.666C72.9282 47.3877 73.375 47.1387 73.6899 46.9775C73.7266 46.9556 73.7412 46.9556 73.7778 46.9336C74.6348 47.0215 75.25 47.6221 75.25 48.3765C75.25 48.5156 75.0303 49.6143 74.7446 50.5957C74.5981 51.0791 74.4517 51.5698 74.3271 52.0166C74.2026 52.4634 74.0781 52.7783 74.0781 53.4375C74.0781 53.9355 73.668 54.375 73.0234 54.375H69.625V56.9385C69.625 67.1045 62.2935 75.5054 52.6401 77.2266L52.1055 77.3145L51.7026 77.688C50.9702 78.3545 50.0474 78.75 49 78.75C47.9526 78.75 47.0298 78.3545 46.2974 77.688L45.8945 77.3145L45.3599 77.2266C35.7065 75.5054 28.375 67.1045 28.375 56.9385V54.375H24.9766C24.332 54.375 23.9219 53.9355 23.9219 53.4375C23.9219 52.7783 23.7974 52.4634 23.6729 52.0166C23.5483 51.5698 23.4019 51.0791 23.2554 50.5957C22.9697 49.6143 22.75 48.5156 22.75 48.3765C22.75 47.6221 23.3652 47.0215 24.2222 46.9336C24.2588 46.9556 24.2734 46.9556 24.3101 46.9775C24.625 47.1387 25.0718 47.3877 25.5552 47.666L28.375 49.3213V43.2202C28.375 40.0122 29.5029 37.5879 31.2095 35.625ZM71.3608 35.625H75.25V43.4033C74.73 43.2349 74.1807 43.125 73.6094 43.125C73.4482 43.125 73.4775 43.1616 73.375 43.1763V43.125C73.375 40.0342 72.3936 37.478 71.3608 35.625ZM38.6875 46.875C37.1348 46.875 35.875 48.1348 35.875 49.6875C35.875 51.2402 37.1348 52.5 38.6875 52.5C40.2402 52.5 41.5 51.2402 41.5 49.6875C41.5 48.1348 40.2402 46.875 38.6875 46.875ZM59.3125 46.875C57.7598 46.875 56.5 48.1348 56.5 49.6875C56.5 51.2402 57.7598 52.5 59.3125 52.5C60.8652 52.5 62.125 51.2402 62.125 49.6875C62.125 48.1348 60.8652 46.875 59.3125 46.875ZM37.75 78.4204C39.7495 79.4678 41.9102 80.2734 44.2026 80.7349C45.5283 81.7896 47.1689 82.5 49 82.5C50.8237 82.5 52.457 81.7896 53.7754 80.7422C56.0752 80.2881 58.2432 79.4824 60.25 78.4277V86.25C60.25 88.4399 59.0488 91.3916 56.9907 93.6621C54.9253 95.9326 52.1274 97.5 49 97.5C42.4375 97.5 37.75 92.8125 37.75 86.25V78.4204ZM34.0293 86.9019C34.3662 95.0171 40.7822 101.25 49 101.25C53.3726 101.25 57.1372 99.0674 59.7593 96.1816C62.2202 93.4717 63.7729 90.1392 63.9634 86.9019C66.9663 87.8467 72.5034 89.707 78.2017 92.4023C82.3252 94.3506 86.4268 96.7017 89.3784 99.2432C92.3301 101.785 94 104.399 94 106.875V114.375H4V106.875C4 104.399 5.66992 101.785 8.62158 99.2432C11.5732 96.7017 15.6748 94.3506 19.7983 92.4023C25.4966 89.7144 31.0264 87.8467 34.0293 86.9019ZM11.5 106.875C10.4673 106.875 9.625 107.717 9.625 108.75C9.625 109.783 10.4673 110.625 11.5 110.625C12.5327 110.625 13.375 109.783 13.375 108.75C13.375 107.717 12.5327 106.875 11.5 106.875ZM19 106.875C17.9673 106.875 17.125 107.717 17.125 108.75C17.125 109.783 17.9673 110.625 19 110.625C20.0327 110.625 20.875 109.783 20.875 108.75C20.875 107.717 20.0327 106.875 19 106.875ZM26.5 106.875C25.4673 106.875 24.625 107.717 24.625 108.75C24.625 109.783 25.4673 110.625 26.5 110.625C27.5327 110.625 28.375 109.783 28.375 108.75C28.375 107.717 27.5327 106.875 26.5 106.875ZM34 106.875C32.9673 106.875 32.125 107.717 32.125 108.75C32.125 109.783 32.9673 110.625 34 110.625C35.0327 110.625 35.875 109.783 35.875 108.75C35.875 107.717 35.0327 106.875 34 106.875ZM41.5 106.875C40.4673 106.875 39.625 107.717 39.625 108.75C39.625 109.783 40.4673 110.625 41.5 110.625C42.5327 110.625 43.375 109.783 43.375 108.75C43.375 107.717 42.5327 106.875 41.5 106.875ZM49 106.875C47.9673 106.875 47.125 107.717 47.125 108.75C47.125 109.783 47.9673 110.625 49 110.625C50.0327 110.625 50.875 109.783 50.875 108.75C50.875 107.717 50.0327 106.875 49 106.875ZM56.5 106.875C55.4673 106.875 54.625 107.717 54.625 108.75C54.625 109.783 55.4673 110.625 56.5 110.625C57.5327 110.625 58.375 109.783 58.375 108.75C58.375 107.717 57.5327 106.875 56.5 106.875ZM64 106.875C62.9673 106.875 62.125 107.717 62.125 108.75C62.125 109.783 62.9673 110.625 64 110.625C65.0327 110.625 65.875 109.783 65.875 108.75C65.875 107.717 65.0327 106.875 64 106.875ZM71.5 106.875C70.4673 106.875 69.625 107.717 69.625 108.75C69.625 109.783 70.4673 110.625 71.5 110.625C72.5327 110.625 73.375 109.783 73.375 108.75C73.375 107.717 72.5327 106.875 71.5 106.875ZM79 106.875C77.9673 106.875 77.125 107.717 77.125 108.75C77.125 109.783 77.9673 110.625 79 110.625C80.0327 110.625 80.875 109.783 80.875 108.75C80.875 107.717 80.0327 106.875 79 106.875ZM86.5 106.875C85.4673 106.875 84.625 107.717 84.625 108.75C84.625 109.783 85.4673 110.625 86.5 110.625C87.5327 110.625 88.375 109.783 88.375 108.75C88.375 107.717 87.5327 106.875 86.5 106.875Z" fill="#2D1B1B"/>
</svg>
