<svg width="132" height="90" viewBox="0 0 132 90" fill="none" xmlns="http://www.w3.org/2000/svg">
<path d="M7.875 0C3.75146 0 0.375 3.37646 0.375 7.5V33.75H2.25C8.48291 33.75 13.5 38.7671 13.5 45C13.5 51.2329 8.48291 56.25 2.25 56.25H0.375V82.5C0.375 86.6235 3.75146 90 7.875 90H124.125C128.249 90 131.625 86.6235 131.625 82.5V56.25H129.75C123.517 56.25 118.5 51.2329 118.5 45C118.5 38.7671 123.517 33.75 129.75 33.75H131.625V7.5C131.625 3.37646 128.249 0 124.125 0H7.875ZM7.875 3.75H36C36 4.78271 36.8423 5.625 37.875 5.625C38.9077 5.625 39.75 4.78271 39.75 3.75H124.125C126.22 3.75 127.875 5.40527 127.875 7.5V30.3809C120.536 31.3477 114.75 37.4048 114.75 45C114.75 52.5952 120.536 58.6523 127.875 59.6191V82.5C127.875 84.5947 126.22 86.25 124.125 86.25H39.75C39.75 85.2173 38.9077 84.375 37.875 84.375C36.8423 84.375 36 85.2173 36 86.25H7.875C5.78027 86.25 4.125 84.5947 4.125 82.5V59.6191C11.4639 58.6523 17.25 52.5952 17.25 45C17.25 37.4048 11.4639 31.3477 4.125 30.3809V7.5C4.125 5.40527 5.78027 3.75 7.875 3.75ZM37.875 9.375C36.8423 9.375 36 10.2173 36 11.25C36 12.2827 36.8423 13.125 37.875 13.125C38.9077 13.125 39.75 12.2827 39.75 11.25C39.75 10.2173 38.9077 9.375 37.875 9.375ZM37.875 16.875C36.8423 16.875 36 17.7173 36 18.75C36 19.7827 36.8423 20.625 37.875 20.625C38.9077 20.625 39.75 19.7827 39.75 18.75C39.75 17.7173 38.9077 16.875 37.875 16.875ZM37.875 24.375C36.8423 24.375 36 25.2173 36 26.25C36 27.2827 36.8423 28.125 37.875 28.125C38.9077 28.125 39.75 27.2827 39.75 26.25C39.75 25.2173 38.9077 24.375 37.875 24.375ZM37.875 31.875C36.8423 31.875 36 32.7173 36 33.75C36 34.7827 36.8423 35.625 37.875 35.625C38.9077 35.625 39.75 34.7827 39.75 33.75C39.75 32.7173 38.9077 31.875 37.875 31.875ZM37.875 39.375C36.8423 39.375 36 40.2173 36 41.25C36 42.2827 36.8423 43.125 37.875 43.125C38.9077 43.125 39.75 42.2827 39.75 41.25C39.75 40.2173 38.9077 39.375 37.875 39.375ZM37.875 46.875C36.8423 46.875 36 47.7173 36 48.75C36 49.7827 36.8423 50.625 37.875 50.625C38.9077 50.625 39.75 49.7827 39.75 48.75C39.75 47.7173 38.9077 46.875 37.875 46.875ZM37.875 54.375C36.8423 54.375 36 55.2173 36 56.25C36 57.2827 36.8423 58.125 37.875 58.125C38.9077 58.125 39.75 57.2827 39.75 56.25C39.75 55.2173 38.9077 54.375 37.875 54.375ZM37.875 61.875C36.8423 61.875 36 62.7173 36 63.75C36 64.7827 36.8423 65.625 37.875 65.625C38.9077 65.625 39.75 64.7827 39.75 63.75C39.75 62.7173 38.9077 61.875 37.875 61.875ZM37.875 69.375C36.8423 69.375 36 70.2173 36 71.25C36 72.2827 36.8423 73.125 37.875 73.125C38.9077 73.125 39.75 72.2827 39.75 71.25C39.75 70.2173 38.9077 69.375 37.875 69.375ZM37.875 76.875C36.8423 76.875 36 77.7173 36 78.75C36 79.7827 36.8423 80.625 37.875 80.625C38.9077 80.625 39.75 79.7827 39.75 78.75C39.75 77.7173 38.9077 76.875 37.875 76.875Z" fill="#2D1B1B"/>
</svg>
