<svg width="92" height="95" viewBox="0 0 92 95" fill="none" xmlns="http://www.w3.org/2000/svg">
<path d="M31.5 0C19.2566 0 9.33984 12.5508 9.33984 12.5508L8.21484 13.9248L9.75586 14.8037C9.75586 14.8037 10.1396 14.9763 10.7344 15.9082C11.3291 16.8401 12 18.451 12 21.1904C12 24.6357 12.6053 27.1641 12.9375 28.3096C12.363 28.9695 12 29.8172 12 30.75C12 31.6169 12.2381 32.3051 12.4307 32.9883C12.527 33.3298 12.6213 33.6463 12.6826 33.8818C12.7439 34.1174 12.75 34.3523 12.75 34.125C12.75 35.9716 14.2784 37.5 16.125 37.5H16.6406C16.8813 42.3577 19.2001 46.6464 22.7373 49.5H22.5V54.4336C20.5047 55.037 16.4061 56.3644 12.2109 58.3066C9.30472 59.6521 6.37153 61.2753 4.0752 63.2139C1.77886 65.1524 0 67.5069 0 70.3242V78H43.5V75H3V70.3242C3 68.8185 4.05556 67.1562 6.01172 65.5049C7.96788 63.8535 10.7069 62.3108 13.4707 61.0312C17.0043 59.3953 20.3962 58.2426 22.5 57.5801V58.8984L22.6963 59.2441C22.6963 59.2441 25.871 64.5 33 64.5C40.129 64.5 43.3037 59.2441 43.3037 59.2441L43.5 58.8984V57.583C45.2653 58.139 47.9582 59.0548 50.8535 60.293L45.2783 64.0107C44.1694 64.7508 43.5 66.0013 43.5 67.3359V68.8359H43.9395C44.4307 69.9397 45.3934 70.7569 46.5 71.1035V94.5H88.5V71.1035C89.6066 70.7569 90.5693 69.9397 91.0605 68.8359H91.5V67.3359C91.5 66.0019 90.8319 64.7517 89.7217 64.0107L67.5 49.1982L53.8008 58.3301C49.6183 56.3939 45.5021 55.0395 43.5 54.4336V49.5H43.2627C46.7999 46.6462 49.1187 42.3569 49.3594 37.5H49.875C51.7216 37.5 53.25 35.9716 53.25 34.125C53.25 34.3523 53.2562 34.1173 53.3174 33.8818C53.3787 33.6463 53.473 33.3298 53.5693 32.9883C53.7619 32.3051 54 31.6169 54 30.75C54 29.8815 53.6852 29.0867 53.1797 28.4473C53.2993 27.4977 54 21.8513 54 17.751C54 13.2922 52.7745 9.90468 50.5635 7.67578C48.5067 5.60232 45.6755 4.72993 42.6533 4.60547C42.3354 4.15396 41.9862 3.49683 40.5527 2.51367C38.6815 1.23028 35.7246 0 31.5 0ZM31.5 3C35.1534 3 37.4471 4.01972 38.8564 4.98633C40.2658 5.95293 40.7051 6.75586 40.7051 6.75586L41.1387 7.5H42C44.7191 7.5 46.8975 8.23661 48.4365 9.78809C49.9755 11.3396 51 13.8292 51 17.751C51 20.9258 50.5489 25.0323 50.3203 27.0059C50.2964 27.0054 50.274 27 50.25 27C49.6338 27 49.6179 27.1147 49.5 27.2051V23.751C49.5 19.4078 47.6798 16.6196 45.8232 15.1055C43.9667 13.5913 42.0205 13.2305 42.0205 13.2305L41.2646 13.0928L40.7109 13.623C40.7109 13.623 39.9692 14.3615 38.0977 15.2168C36.2261 16.0721 33.3254 16.957 29.25 16.957C26.9367 16.957 23.939 17.7629 21.3193 19.5938C18.9912 21.2209 17.0852 23.8414 16.6699 27.252C16.494 27.152 16.5058 27 15.75 27C15.729 27 15.7094 27.0055 15.6885 27.0059C15.4048 25.9411 15 24.0002 15 21.1904C15 17.9494 14.1709 15.7151 13.2656 14.2969C12.96 13.8181 12.8857 13.9007 12.583 13.5879C13.8897 12.1146 22.1647 3 31.5 3ZM41.8535 16.3711C42.1376 16.4387 42.853 16.5551 43.9277 17.4316C45.1965 18.4664 46.5 20.1996 46.5 23.751V32.5137L48.8115 31.0312C49.2743 30.7342 49.768 30.4247 50.1475 30.2051C50.2327 30.1557 50.2763 30.1352 50.3467 30.0967C50.6937 30.1654 51 30.3751 51 30.75C51 30.7891 50.8631 31.5268 50.6807 32.1738C50.5895 32.4973 50.4963 32.8212 50.417 33.126C50.3377 33.4308 50.25 33.636 50.25 34.125C50.25 34.3484 50.0984 34.5 49.875 34.5H46.5V36.7119C46.5 43.3675 41.6992 48.8592 35.3818 49.9863L34.957 50.0625L34.6377 50.3555C34.1916 50.7614 33.633 51 33 51C32.367 51 31.8084 50.7614 31.3623 50.3555L31.043 50.0625L30.6182 49.9863C24.301 48.8606 19.5 43.3692 19.5 36.7119V34.5H16.125C15.9016 34.5 15.75 34.3484 15.75 34.125C15.75 33.636 15.6623 33.4308 15.583 33.126C15.5037 32.8212 15.4105 32.4973 15.3193 32.1738C15.1369 31.5268 15 30.7891 15 30.75C15 30.3751 15.3063 30.1654 15.6533 30.0967C15.7237 30.1352 15.7674 30.1557 15.8525 30.2051C16.2318 30.4248 16.7262 30.7338 17.1885 31.0312L19.5 32.5166V28.5234C19.5 25.4907 20.9957 23.4807 23.0361 22.0547C25.0766 20.6286 27.7038 19.957 29.25 19.957C33.7621 19.957 37.1114 18.9641 39.3428 17.9443C40.9694 17.201 41.3848 16.7531 41.8535 16.3711ZM26.25 31.5C25.6533 31.5 25.081 31.7371 24.659 32.159C24.2371 32.581 24 33.1533 24 33.75C24 34.3467 24.2371 34.919 24.659 35.341C25.081 35.7629 25.6533 36 26.25 36C26.8467 36 27.419 35.7629 27.841 35.341C28.2629 34.919 28.5 34.3467 28.5 33.75C28.5 33.1533 28.2629 32.581 27.841 32.159C27.419 31.7371 26.8467 31.5 26.25 31.5ZM39.75 31.5C39.1533 31.5 38.581 31.7371 38.159 32.159C37.7371 32.581 37.5 33.1533 37.5 33.75C37.5 34.3467 37.7371 34.919 38.159 35.341C38.581 35.7629 39.1533 36 39.75 36C40.3467 36 40.919 35.7629 41.341 35.341C41.7629 34.919 42 34.3467 42 33.75C42 33.1533 41.7629 32.581 41.341 32.159C40.919 31.7371 40.3467 31.5 39.75 31.5ZM25.5 51.2988C26.8056 51.9729 28.2086 52.4875 29.6953 52.793C30.61 53.5084 31.7368 54 33 54C34.2632 54 35.39 53.5084 36.3047 52.793C37.7913 52.4872 39.1944 51.9731 40.5 51.2988V57.9727C40.2798 58.3571 38.3977 61.5 33 61.5C27.6023 61.5 25.7202 58.3571 25.5 57.9727V51.2988ZM67.5 52.8018L88.0547 66.5068C88.3335 66.6929 88.5 67.0019 88.5 67.3359C88.5 68.2151 87.6823 68.6529 86.9502 68.165L67.5 55.1982L48.0498 68.165C47.3177 68.6529 46.5 68.2151 46.5 67.3359C46.5 66.9995 46.6653 66.6937 46.9453 66.5068L67.5 52.8018ZM67.5 58.8018L85.2861 70.6611H85.2891C85.3572 70.7066 85.4307 70.7263 85.5 70.7666V85.5C85.1022 85.5 84.7206 85.658 84.4393 85.9393C84.158 86.2206 84 86.6022 84 87C84 87.3978 84.158 87.7794 84.4393 88.0607C84.7206 88.342 85.1022 88.5 85.5 88.5V91.5H75V73.5H60V75V91.5H49.5V88.5C49.8978 88.5 50.2794 88.342 50.5607 88.0607C50.842 87.7794 51 87.3978 51 87C51 86.6022 50.842 86.2206 50.5607 85.9393C50.2794 85.658 49.8978 85.5 49.5 85.5V70.7666C49.5693 70.7263 49.6428 70.7066 49.7109 70.6611H49.7139L67.5 58.8018ZM9 69C8.60218 69 8.22064 69.158 7.93934 69.4393C7.65804 69.7206 7.5 70.1022 7.5 70.5C7.5 70.8978 7.65804 71.2794 7.93934 71.5607C8.22064 71.842 8.60218 72 9 72C9.39782 72 9.77936 71.842 10.0607 71.5607C10.342 71.2794 10.5 70.8978 10.5 70.5C10.5 70.1022 10.342 69.7206 10.0607 69.4393C9.77936 69.158 9.39782 69 9 69ZM15 69C14.6022 69 14.2206 69.158 13.9393 69.4393C13.658 69.7206 13.5 70.1022 13.5 70.5C13.5 70.8978 13.658 71.2794 13.9393 71.5607C14.2206 71.842 14.6022 72 15 72C15.3978 72 15.7794 71.842 16.0607 71.5607C16.342 71.2794 16.5 70.8978 16.5 70.5C16.5 70.1022 16.342 69.7206 16.0607 69.4393C15.7794 69.158 15.3978 69 15 69ZM21 69C20.6022 69 20.2206 69.158 19.9393 69.4393C19.658 69.7206 19.5 70.1022 19.5 70.5C19.5 70.8978 19.658 71.2794 19.9393 71.5607C20.2206 71.842 20.6022 72 21 72C21.3978 72 21.7794 71.842 22.0607 71.5607C22.342 71.2794 22.5 70.8978 22.5 70.5C22.5 70.1022 22.342 69.7206 22.0607 69.4393C21.7794 69.158 21.3978 69 21 69ZM27 69C26.6022 69 26.2206 69.158 25.9393 69.4393C25.658 69.7206 25.5 70.1022 25.5 70.5C25.5 70.8978 25.658 71.2794 25.9393 71.5607C26.2206 71.842 26.6022 72 27 72C27.3978 72 27.7794 71.842 28.0607 71.5607C28.342 71.2794 28.5 70.8978 28.5 70.5C28.5 70.1022 28.342 69.7206 28.0607 69.4393C27.7794 69.158 27.3978 69 27 69ZM33 69C32.6022 69 32.2206 69.158 31.9393 69.4393C31.658 69.7206 31.5 70.1022 31.5 70.5C31.5 70.8978 31.658 71.2794 31.9393 71.5607C32.2206 71.842 32.6022 72 33 72C33.3978 72 33.7794 71.842 34.0607 71.5607C34.342 71.2794 34.5 70.8978 34.5 70.5C34.5 70.1022 34.342 69.7206 34.0607 69.4393C33.7794 69.158 33.3978 69 33 69ZM39 69C38.6022 69 38.2206 69.158 37.9393 69.4393C37.658 69.7206 37.5 70.1022 37.5 70.5C37.5 70.8978 37.658 71.2794 37.9393 71.5607C38.2206 71.842 38.6022 72 39 72C39.3978 72 39.7794 71.842 40.0607 71.5607C40.342 71.2794 40.5 70.8978 40.5 70.5C40.5 70.1022 40.342 69.7206 40.0607 69.4393C39.7794 69.158 39.3978 69 39 69ZM63 76.5H72V91.5H63V76.5ZM55.5 85.5C55.1022 85.5 54.7206 85.658 54.4393 85.9393C54.158 86.2206 54 86.6022 54 87C54 87.3978 54.158 87.7794 54.4393 88.0607C54.7206 88.342 55.1022 88.5 55.5 88.5C55.8978 88.5 56.2794 88.342 56.5607 88.0607C56.842 87.7794 57 87.3978 57 87C57 86.6022 56.842 86.2206 56.5607 85.9393C56.2794 85.658 55.8978 85.5 55.5 85.5ZM79.5 85.5C79.1022 85.5 78.7206 85.658 78.4393 85.9393C78.158 86.2206 78 86.6022 78 87C78 87.3978 78.158 87.7794 78.4393 88.0607C78.7206 88.342 79.1022 88.5 79.5 88.5C79.8978 88.5 80.2794 88.342 80.5607 88.0607C80.842 87.7794 81 87.3978 81 87C81 86.6022 80.842 86.2206 80.5607 85.9393C80.2794 85.658 79.8978 85.5 79.5 85.5Z" fill="white"/>
</svg>
